<?xml version="1.0" standalone="no"?>
<!DOCTYPE svg PUBLIC "-//W3C//DTD SVG 20010904//EN"
 "http://www.w3.org/TR/2001/REC-SVG-20010904/DTD/svg10.dtd">
<svg version="1.0" xmlns="http://www.w3.org/2000/svg"
 width="512.000000pt" height="512.000000pt" viewBox="0 0 512.000000 512.000000"
 preserveAspectRatio="xMidYMid meet">

<g transform="translate(0.000000,512.000000) scale(0.100000,-0.100000)"
fill="#000000" stroke="none">
<path d="M2330 5110 c-494 -48 -950 -230 -1350 -538 -195 -150 -448 -432 -594
-662 -63 -99 -186 -351 -230 -471 -49 -134 -102 -340 -128 -499 -31 -195 -31
-565 0 -760 45 -276 116 -498 237 -745 132 -269 269 -460 489 -681 221 -220
412 -357 681 -489 247 -121 469 -192 745 -237 195 -31 565 -31 760 0 276 45
498 116 745 237 269 132 460 269 681 489 220 221 357 412 489 681 88 179 132
296 180 476 63 240 78 371 78 649 0 278 -15 409 -78 649 -48 180 -92 297 -180
476 -132 269 -269 460 -489 681 -221 220 -412 357 -681 489 -246 121 -474 193
-740 235 -147 23 -475 34 -615 20z m1265 -1111 c210 -65 354 -214 406 -419 21
-81 21 -1959 0 -2040 -53 -211 -210 -368 -421 -421 -81 -21 -1959 -21 -2040 0
-205 52 -354 196 -419 406 -13 43 -15 176 -18 975 -4 956 -1 1038 36 1146 68
191 249 336 456 364 33 4 485 7 1005 6 820 -2 952 -4 995 -17z"/>
<path d="M3190 3435 l0 -245 245 0 245 0 0 245 0 245 -245 0 -245 0 0 -245z"/>
<path d="M2431 3054 c-380 -102 -508 -575 -230 -853 280 -280 754 -149 854
236 96 367 -257 716 -624 617z"/>
<path d="M1392 2223 c3 -637 3 -638 25 -679 28 -53 74 -99 127 -127 l41 -22
975 0 c931 0 977 1 1010 19 49 26 108 84 133 131 22 40 22 45 25 678 l3 637
-216 0 c-118 0 -215 -1 -215 -2 0 -2 9 -32 20 -66 147 -469 -180 -966 -673
-1021 -437 -49 -831 269 -876 708 -13 119 5 261 45 366 5 13 -20 15 -210 15
l-217 0 3 -637z"/>
</g>
</svg>
