<?xml version="1.0" standalone="no"?>
<!DOCTYPE svg PUBLIC "-//W3C//DTD SVG 20010904//EN"
 "http://www.w3.org/TR/2001/REC-SVG-20010904/DTD/svg10.dtd">
<svg version="1.0" xmlns="http://www.w3.org/2000/svg"
 width="512.000000pt" height="250.000000pt" viewBox="0 0 512.000000 250.000000"
 preserveAspectRatio="xMidYMid meet">

<g transform="translate(0.000000,250.000000) scale(0.100000,-0.100000)"
fill="#000000" stroke="none">
<path d="M1150 2300 c-58 -4 -119 -8 -136 -9 -27 -1 -48 -20 -164 -157 -72
-85 -130 -157 -129 -159 5 -4 558 310 573 325 7 7 2 9 -14 8 -14 -1 -72 -5
-130 -8z"/>
<path d="M1765 2263 c44 -25 88 -45 98 -45 11 0 89 18 175 39 l157 38 -115 6
c-63 4 -178 7 -255 8 l-140 1 80 -47z"/>
<path d="M3030 2301 l-105 -6 140 -33 c77 -19 154 -37 170 -41 26 -7 44 -1
115 40 l85 49 -150 -2 c-82 -1 -197 -4 -255 -7z"/>
<path d="M3826 2300 c15 -15 568 -329 573 -325 1 2 -56 73 -129 159 l-131 154
-87 6 c-48 3 -121 8 -162 11 -51 4 -71 2 -64 -5z"/>
<path d="M1085 2074 c-198 -113 -371 -212 -385 -219 -22 -12 27 -14 368 -15
l392 0 0 220 c0 121 -3 220 -7 220 -5 0 -170 -93 -368 -206z"/>
<path d="M1550 2098 l1 -183 109 115 c60 63 110 118 110 122 0 6 -206 128
-216 128 -2 0 -4 -82 -4 -182z"/>
<path d="M3456 2221 c-55 -32 -101 -62 -103 -67 -1 -5 47 -61 107 -124 l109
-115 1 183 c0 100 -3 182 -7 181 -5 0 -53 -27 -107 -58z"/>
<path d="M3660 2061 l0 -221 392 0 c215 0 389 2 387 4 -9 8 -747 426 -763 432
-14 6 -16 -15 -16 -215z"/>
<path d="M2291 2058 l-263 -213 266 -3 c146 -1 386 -1 532 0 l267 3 -257 208
c-142 115 -263 210 -270 213 -7 3 -131 -91 -275 -208z"/>
<path d="M2123 2186 c-116 -28 -214 -54 -218 -57 -8 -8 16 -214 26 -231 6 -9
12 -9 26 4 10 8 106 86 213 173 107 87 197 159 199 161 11 10 -52 -2 -246 -50z"/>
<path d="M2756 2232 c5 -5 103 -84 218 -177 135 -109 211 -164 215 -156 12 19
33 223 24 231 -8 7 -437 110 -457 110 -6 0 -6 -3 0 -8z"/>
<path d="M427 1970 c-98 -65 -180 -120 -184 -124 -3 -3 48 -6 115 -6 l120 0
67 121 c37 66 66 121 64 123 -2 2 -84 -50 -182 -114z"/>
<path d="M4510 2083 c0 -3 30 -59 66 -124 l66 -119 121 0 c69 0 117 4 112 9
-21 19 -365 240 -365 234z"/>
<path d="M1742 1990 c-34 -37 -78 -86 -98 -108 l-36 -42 116 0 c113 0 116 1
116 22 0 43 -23 198 -29 197 -3 -1 -34 -32 -69 -69z"/>
<path d="M3291 1972 c-18 -146 -29 -132 105 -132 l116 0 -32 38 c-37 43 -171
182 -175 182 -1 0 -7 -40 -14 -88z"/>
<path d="M241 1727 c21 -18 1410 -1137 1520 -1225 16 -13 29 -21 29 -19 0 3
-293 289 -651 636 l-650 631 -137 0 -137 -1 26 -22z"/>
<path d="M961 1617 c308 -159 397 -202 403 -196 5 5 76 304 76 319 0 6 -134
10 -367 10 l-368 -1 256 -132z"/>
<path d="M1525 1713 c-3 -21 -16 -80 -29 -130 -12 -51 -19 -93 -15 -93 6 0
201 172 274 241 19 19 17 19 -102 19 l-121 0 -7 -37z"/>
<path d="M2293 1565 c141 -102 261 -185 268 -185 9 0 377 260 498 352 23 17 8
18 -499 18 l-522 0 255 -185z"/>
<path d="M3370 1727 c37 -34 231 -209 257 -230 l22 -19 -14 59 c-8 32 -22 93
-31 136 l-17 77 -121 0 -121 0 25 -23z"/>
<path d="M3680 1740 c0 -16 71 -315 76 -320 6 -5 192 86 462 227 l197 102
-367 1 c-234 0 -368 -4 -368 -10z"/>
<path d="M3981 1119 c-358 -347 -651 -633 -651 -636 0 -2 13 6 29 19 150 120
1500 1208 1520 1225 l26 22 -137 1 -137 0 -650 -631z"/>
<path d="M1665 1529 c-110 -100 -200 -186 -199 -192 1 -15 946 -1268 952
-1262 6 6 -538 1635 -546 1635 -4 0 -97 -82 -207 -181z"/>
<path d="M2970 895 c-150 -449 -270 -818 -268 -820 4 -5 946 1239 954 1259 3
9 -383 366 -406 374 -4 2 -130 -364 -280 -813z"/>
<path d="M2010 1648 c0 -13 259 -582 266 -584 9 -3 205 224 210 242 2 5 -101
83 -227 174 -215 154 -249 177 -249 168z"/>
<path d="M2863 1482 c-127 -92 -231 -171 -229 -176 4 -18 201 -245 210 -242 7
1 266 570 266 584 0 10 -43 -19 -247 -166z"/>
<path d="M929 1447 c215 -212 1135 -1101 1186 -1147 l39 -35 -30 41 c-16 22
-193 257 -394 523 l-364 483 -298 149 c-164 82 -300 149 -302 149 -2 0 71 -73
163 -163z"/>
<path d="M4050 1461 l-296 -149 -364 -483 c-201 -266 -378 -501 -394 -523
l-30 -41 34 30 c107 95 1362 1315 1352 1314 -4 0 -140 -67 -302 -148z"/>
<path d="M2431 1098 c-67 -78 -120 -147 -118 -153 2 -5 57 -220 123 -477 65
-258 121 -468 124 -468 3 0 59 210 124 468 66 257 121 472 123 477 4 11 -234
295 -247 295 -4 0 -62 -64 -129 -142z"/>
</g>
</svg>
